PathFileType	4	(X/Y/Z)	pose_F01_0-93.trc
DataRate	CameraRate	NumFrames	NumMarkers	Units	OrigDataRate	OrigDataStartFrame	OrigNumFrames
30	30	5	21	m	30	23	93
Frame#	Time	CHip			RHip			RKnee			RAnkle			RBigToe			RSmallToe			RHeel			LHip			LKnee			LAnkle			LBigToe			LSmallToe			LHeel			Neck			Nose			RShoulder			RElbow			RWrist			LShoulder			LElbow			LWrist			
		X1	Y1	Z1	X2	Y2	Z2	X3	Y3	Z3	X4	Y4	Z4	X5	Y5	Z5	X6	Y6	Z6	X7	Y7	Z7	X8	Y8	Z8	X9	Y9	Z9	X10	Y10	Z10	X11	Y11	Z11	X12	Y12	Z12	X13	Y13	Z13	X14	Y14	Z14	X15	Y15	Z15	X16	Y16	Z16	X17	Y17	Z17	X18	Y18	Z18	X19	Y19	Z19	X20	Y20	Z20	X21	Y21	Z21	
23	0.7666666666666667	-0.23706723107465924	1.8699292835840702	-0.5795219421609188	-0.2541254106752975	1.8669914268371106	-0.5177180429713083	-0.23384872979776303	1.712612530561669	-0.4997109078098033	-0.23230008601395752	1.557710169055985	-0.4855606274470792	-0.612447530621155	1.4965097305654886	-0.8837148153502998				-0.22257440528079642	1.5412823339827626	-0.4902039766755659	-0.22469470988919474	1.8723847664944997	-0.6431256496069139	-0.21278919620938513	1.71400315816334	-0.6138860432433103	-0.21037191917049766	1.5614206093786265	-0.5783337743116939	-0.2501479216475045	1.5169818705074432	-0.6189264679116733	-0.23436613047850005	1.525217122858877	-0.6306169116157362	-0.20600249455883937	1.5476068338212443	-0.5726775603834192	-0.22110098722423926	2.0535758424530255	-0.5885040165808074	-0.2612805341986559	2.1249418639593896	-0.6113668281828954	-0.24046694422764298	2.050458094172729	-0.5015055853903196	-0.25069655915898614	1.9495831619029471	-0.4663398284986633	-0.2627283450103259	1.8639085896339886	-0.45057444984036876	-0.19932405066642023	2.057604523116195	-0.675903116887358	-0.20043301696075932	1.9937946552218233	-0.7154326060038397	-1.2503576852129623	1.828865671896099	0.3582299124466968
24	0.8	-0.23891545927984498	1.8712067014272475	-0.5774909571043891	-0.25425359458124125	1.868267293548646	-0.5178989264319708	-0.2356492272507865	1.7139739183477063	-0.49796761040518844	-0.23229690602153538	1.5575393703489075	-0.4855374891637723	-0.612447530621155	1.4965097305654886	-0.8837148153502998				-0.2222587029648475	1.5425413838101663	-0.4904242373299357	-0.22376048082101335	1.875141596849376	-0.6402747107478274	-0.2126226464475846	1.7155953330143492	-0.6142820310178001	-0.21033133263756723	1.5642820121107084	-0.5786661036995553	-0.25045475877438483	1.5157635674305385	-0.6182592920403023	-0.23599800310154057	1.5251414510425167	-0.6244008152384455	-0.20579541945594398	1.5495945504116873	-0.5733367230309104	-0.2211089657548072	2.0535322261389863	-0.5884959340283449	-0.2612675769582604	2.124912929743092	-0.6113911047289345	-0.24046427873455337	2.0504963277993937	-0.5014669371293721	-0.250751056971059	1.9513009324716928	-0.4667937691116348	-0.2626550937922137	1.865396389132498	-0.4509442429177317	-0.19935531992757144	2.0575193329285275	-0.6759041872808256	-0.20043301696075932	1.9937946552218233	-0.7154326060038397	-1.2503576852129623	1.828865671896099	0.3582299124466968
25	0.8333333333333334	-0.23709441388594524	1.8674769842490988	-0.5791192394818718	-0.25425079374513204	1.8660049834025565	-0.5174272734490503	-0.23584753195364264	1.7097857615140843	-0.4972765324158917	-0.23251593447453558	1.5561039571363058	-0.4849103197047123	-0.612447530621155	1.4965097305654886	-0.8837148153502998				-0.22271396819815115	1.5420814377883763	-0.4897561304280643	-0.22174487516965377	1.8724197388336346	-0.6421767227760847	-0.21264793137657478	1.7126128925271535	-0.6138940645016304	-0.2105944749837725	1.5625946749332875	-0.5780170566899241	-0.25350980403119383	1.5154860767299352	-0.6193993041186328	-0.23468694832437462	1.5239033202143433	-0.6300282030810866	-0.20625150544280696	1.546159613415305	-0.5720771465758213	-0.22112017906546189	2.053595030108496	-0.5885270543301008	-0.26126351197964476	2.12490468735023	-0.6113982642760486	-0.24050352304992062	2.0505072730870735	-0.5014771802050488	-0.25082522679769165	1.9506703244557553	-0.466767279707008	-0.2658333880276911	1.866312796446333	-0.45204625882791544	-0.19934585607199903	2.057637713073681	-0.6759548321367104	-0.20043301696075932	1.9937946552218233	-0.7154326060038397	-1.2503576852129623	1.828865671896099	0.3582299124466968
26	0.8666666666666667	-0.23913317507512324	1.8673220649138644	-0.5768847024992655	-0.2542614796633719	1.8659811495436913	-0.5173405643290252	-0.23607033910711106	1.7113895673386978	-0.4971614802220736	-0.23231816926829638	1.5576799832450523	-0.4855443798193223	-0.612447530621155	1.4965097305654886	-0.8837148153502998				-0.22235394327493319	1.540373258832785	-0.49015809317819015	-0.22398501661848205	1.8710104988937484	-0.6397657218260876	-0.21197165290831438	1.7142608007832525	-0.610709417406625	-0.21029546923252798	1.5640858649051415	-0.5787018444645802	-0.2511428915970299	1.5170077165986597	-0.6221156336330664	-0.23439940286753416	1.5251558111668255	-0.6306741898089402	-0.20541297961415494	1.5502789547395452	-0.5739429017515887	-0.22111336175904175	2.0535282035002242	-0.5885223092374731	-0.26128265063735906	2.124982839476951	-0.6112956946054978	-0.2404086336277073	2.0504735817269424	-0.5014874192334923	-0.2509181776972672	1.9470939379342782	-0.46634395423530295	-0.2628207735270539	1.8629117062397078	-0.45073039618125044	-0.20141106888172658	2.057783913464833	-0.6738129977021637	-0.20043301696075932	1.9937946552218233	-0.7154326060038397	-1.2503576852129623	1.828865671896099	0.3582299124466968
27	0.9	-0.23909075958529402	1.8699016652846763	-0.5771877273163737	-0.2542452989435697	1.86874414537275	-0.5176756744438628	-0.23629835187749793	1.7098499797253957	-0.49683425935162784	-0.23341925974719657	1.5581998411490179	-0.48879408393347906	-0.612447530621155	1.4965097305654886	-0.8837148153502998				-0.22274077558065025	1.5424397964023786	-0.48988591896604794	-0.2229361766563599	1.872399242048703	-0.6367548956444522	-0.21505779050840762	1.7143418505980037	-0.6116183259152771	-0.2105897165410536	1.5626096916455041	-0.5780120229905907	-0.2501307937002104	1.5169413872692932	-0.6188524587294114	-0.23342926318112642	1.5252883556694687	-0.6274107701812193	-0.2080485767902514	1.5475347344658326	-0.5705146068048471	-0.22311526093887932	2.053398827091423	-0.5862917705291951	-0.26126829589058514	2.1249672942137625	-0.6113159266335477	-0.241511353399332	2.0502897509004194	-0.496262316475308	-0.25075340575246796	1.9494756795344994	-0.4663351115523048	-0.2625705874321072	1.8663453913231363	-0.4509446984288953	-0.19934881630908463	2.0576560353864344	-0.6758872579560756	-0.20043301696075932	1.9937946552218233	-0.7154326060038397	-1.2503576852129623	1.828865671896099	0.3582299124466968
